<?xml version="1.0" encoding="UTF-8" standalone="no"?>
<!-- Created with Inkscape (http://www.inkscape.org/) -->
<svg
   xmlns:dc="http://purl.org/dc/elements/1.1/"
   xmlns:cc="http://web.resource.org/cc/"
   xmlns:rdf="http://www.w3.org/1999/02/22-rdf-syntax-ns#"
   xmlns:svg="http://www.w3.org/2000/svg"
   xmlns="http://www.w3.org/2000/svg"
   xmlns:sodipodi="http://inkscape.sourceforge.net/DTD/sodipodi-0.dtd"
   xmlns:inkscape="http://www.inkscape.org/namespaces/inkscape"
   width="744.09448819"
   height="1052.3622047"
   id="svg2406"
   sodipodi:version="0.32"
   inkscape:version="0.42"
   sodipodi:docbase="/home/sjbrown/work/steam/data"
   sodipodi:docname="barrel.svg">
  <defs
     id="defs2408" />
  <sodipodi:namedview
     id="base"
     pagecolor="#ffffff"
     bordercolor="#666666"
     borderopacity="1.0"
     inkscape:pageopacity="0.0"
     inkscape:pageshadow="2"
     inkscape:zoom="0.35000000"
     inkscape:cx="375.00000"
     inkscape:cy="520.00000"
     inkscape:document-units="px"
     inkscape:current-layer="layer1"
     inkscape:window-width="799"
     inkscape:window-height="527"
     inkscape:window-x="0"
     inkscape:window-y="0" />
  <metadata
     id="metadata2411">
    <rdf:RDF>
      <cc:Work
         rdf:about="">
        <dc:format>image/svg+xml</dc:format>
        <dc:type
           rdf:resource="http://purl.org/dc/dcmitype/StillImage" />
      </cc:Work>
    </rdf:RDF>
  </metadata>
  <g
     inkscape:label="Layer 1"
     inkscape:groupmode="layer"
     id="layer1">
    <path
       sodipodi:type="arc"
       style="opacity:1.0000000;fill:#0e1363;fill-opacity:0.0000000;stroke:#000000;stroke-width:9.8828220;stroke-linecap:round;stroke-linejoin:miter;stroke-miterlimit:4.0000000;stroke-dasharray:none;stroke-dashoffset:0.0000000;stroke-opacity:1.0000000"
       id="path2354"
       sodipodi:cx="1180.2091"
       sodipodi:cy="1250.3622"
       sodipodi:rx="61.790855"
       sodipodi:ry="24.000000"
       d="M 1242.0000 1250.3622 A 61.790855 24.000000 0 1 1  1118.4183,1250.3622 A 61.790855 24.000000 0 1 1  1242.0000 1250.3622 z"
       transform="matrix(1.054540,0.000000,0.000000,1.000000,-898.1510,-625.0719)" />
    <path
       sodipodi:type="arc"
       style="opacity:1.0000000;fill:#0e96b6;fill-opacity:1.0000000;stroke:#000000;stroke-width:10.148750;stroke-linecap:round;stroke-linejoin:miter;stroke-miterlimit:4.0000000;stroke-dasharray:none;stroke-dashoffset:0.0000000;stroke-opacity:1.0000000"
       id="path2298"
       sodipodi:cx="1180.2091"
       sodipodi:cy="1250.3622"
       sodipodi:rx="61.790855"
       sodipodi:ry="24.000000"
       d="M 1242.0000 1250.3622 A 61.790855 24.000000 0 1 1  1118.4183,1250.3622 A 61.790855 24.000000 0 1 1  1242.0000 1250.3622 z"
       transform="translate(-832.8880,-747.9975)" />
    <path
       sodipodi:type="arc"
       style="opacity:1.0000000;fill:none;fill-opacity:0.53051645;stroke:#7a0000;stroke-width:10.148750;stroke-linecap:round;stroke-linejoin:miter;stroke-miterlimit:4.0000000;stroke-dasharray:none;stroke-dashoffset:0.0000000;stroke-opacity:0.58685446"
       id="path2300"
       sodipodi:cx="1180.2091"
       sodipodi:cy="1250.3622"
       sodipodi:rx="61.790855"
       sodipodi:ry="24.000000"
       d="M 1242.0000 1250.3622 A 61.790855 24.000000 0 1 1  1118.4183,1250.3622 A 61.790855 24.000000 0 1 1  1242.0000 1250.3622 z"
       transform="translate(-832.8880,-633.0719)" />
    <path
       style="fill:#9b5b0f;fill-opacity:1.0000000;stroke:#000000;stroke-width:6.3750000;stroke-linecap:round;stroke-linejoin:miter;stroke-miterlimit:4.0000000;stroke-dasharray:none;stroke-dashoffset:0.0000000;stroke-opacity:1.0000000"
       d="M 283.19993,506.36472 C 311.69293,538.36472 394.97662,532.36472 411.44172,506.36472 C 428.78362,544.36472 428.78362,604.36472 411.44172,616.36472 C 401.04082,646.36472 300.04243,652.36472 283.19993,616.36472 C 269.49382,604.36472 260.78362,546.55772 283.19993,506.36472 z "
       id="rect2306"
       sodipodi:nodetypes="ccccc" />
    <path
       sodipodi:type="arc"
       style="opacity:1.0000000;fill:#0e1363;fill-opacity:0.0000000;stroke:#000000;stroke-width:10.148750;stroke-linecap:round;stroke-linejoin:miter;stroke-miterlimit:4.0000000;stroke-dasharray:none;stroke-dashoffset:0.0000000;stroke-opacity:0.57746476"
       id="path2309"
       sodipodi:cx="1180.2091"
       sodipodi:cy="1250.3622"
       sodipodi:rx="61.790855"
       sodipodi:ry="24.000000"
       d="M 1242.0000 1250.3622 A 61.790855 24.000000 0 1 1  1118.4183,1250.3622 A 61.790855 24.000000 0 1 1  1242.0000 1250.3622 z"
       transform="translate(-740.2910,-820.9231)" />
    <path
       style="opacity:1.0000000;fill:#000000;fill-opacity:0.57746476;stroke:none;stroke-width:8.3987503;stroke-linecap:round;stroke-linejoin:miter;stroke-miterlimit:4.0000000;stroke-dasharray:none;stroke-dashoffset:0.0000000;stroke-opacity:1.0000000"
       d="M 292.96933,233.21683 C 276.11983,233.21683 260.84182,235.90013 249.96933,240.12313 C 244.53303,242.23453 240.21203,244.74113 237.34433,247.37313 C 234.47663,250.00493 233.12563,252.64622 233.12553,255.27932 C 233.12553,257.15012 234.07713,259.00942 235.50053,260.87312 C 235.62473,259.12662 236.48753,257.22102 238.87553,255.02932 C 241.44263,252.67342 245.52553,250.25843 250.78182,248.21683 C 261.29452,244.13363 276.35623,241.46683 292.96933,241.46683 C 309.58243,241.46683 324.61293,244.13363 335.12553,248.21683 C 340.38193,250.25843 344.49603,252.67342 347.06313,255.02932 C 349.43803,257.20892 350.30523,259.10312 350.43813,260.84182 C 351.85763,258.98662 352.81313,257.14172 352.81313,255.27932 C 352.81313,252.64622 351.43073,250.00503 348.56313,247.37313 C 345.69553,244.74103 341.37433,242.23453 335.93813,240.12313 C 325.06573,235.90003 309.81883,233.21683 292.96933,233.21683 z "
       id="path2318" />
    <path
       style="opacity:1.0000000;fill:#6e9d9b;fill-opacity:1.0000000;stroke:#000000;stroke-width:0.64875001;stroke-linecap:round;stroke-linejoin:miter;stroke-miterlimit:4.0000000;stroke-dasharray:none;stroke-dashoffset:0.0000000;stroke-opacity:1.0000000"
       d="M 187.89773,303.59092 C 186.37473,306.01082 184.96933,306.72862 184.96933,309.59092 C 184.96943,314.36542 190.24053,320.87302 193.92993,324.25902 C 197.61933,327.64512 202.56463,330.42542 208.49233,332.72782 C 220.34803,337.33262 236.21553,340.04032 253.71112,340.04032 C 271.20673,340.04032 287.04303,337.33262 298.89863,332.72782 C 304.82653,330.42542 309.77173,327.64512 313.46113,324.25902 C 317.15053,320.87302 320.45913,320.36542 320.45923,315.59092 C 320.45923,312.73082 318.49023,306.00932 316.96933,303.59092 C 317.07893,304.23102 315.34983,313.49272 311.96113,316.60282 C 308.57243,319.71292 303.83413,322.40152 298.08613,324.63402 C 286.59023,329.09912 270.97033,331.79032 253.71112,331.79032 C 236.45193,331.79032 220.80083,329.09912 209.30493,324.63402 C 203.55693,322.40152 198.84983,319.71292 195.46113,316.60282 C 192.07243,313.49272 187.89773,306.66242 187.89773,303.59092 z "
       id="path2342"
       sodipodi:nodetypes="cssssssscsssssc" />
    <path
       style="opacity:1.0000000;fill:#000000;fill-opacity:0.57746476;stroke:none;stroke-width:8.3987503;stroke-linecap:round;stroke-linejoin:miter;stroke-miterlimit:4.0000000;stroke-dasharray:none;stroke-dashoffset:0.0000000;stroke-opacity:1.0000000"
       d="M 266.78362,408.31502 C 249.93413,408.31502 234.65613,410.99832 223.78363,415.22132 C 218.34733,417.33272 214.02633,419.83932 211.15863,422.47132 C 208.29093,425.10312 206.93993,427.74442 206.93983,430.37752 C 206.93983,432.24832 207.89143,434.10762 209.31483,435.97132 C 209.43903,434.22482 210.30183,432.31922 212.68983,430.12752 C 215.25693,427.77162 219.33983,425.35662 224.59613,423.31502 C 235.10883,419.23182 250.17052,416.56502 266.78362,416.56502 C 283.39673,416.56502 298.42723,419.23182 308.93983,423.31502 C 314.19623,425.35662 318.31033,427.77162 320.87743,430.12752 C 323.25233,432.30712 324.11953,434.20132 324.25243,435.94002 C 325.67193,434.08482 326.62743,432.23992 326.62743,430.37752 C 326.62743,427.74442 325.24503,425.10322 322.37743,422.47132 C 319.50983,419.83922 315.18863,417.33272 309.75243,415.22132 C 298.88003,410.99822 283.63313,408.31502 266.78362,408.31502 z "
       id="path2346" />
    <path
       style="opacity:1.0000000;fill:#000000;fill-opacity:0.57746476;stroke:none;stroke-width:8.3987503;stroke-linecap:round;stroke-linejoin:miter;stroke-miterlimit:4.0000000;stroke-dasharray:none;stroke-dashoffset:0.0000000;stroke-opacity:1.0000000"
       d="M 203.31483,428.44002 C 201.79183,430.85992 200.78363,433.51522 200.78363,436.37752 C 200.78373,441.15202 203.31303,445.39772 207.00243,448.78372 C 210.69183,452.16982 215.63713,454.95012 221.56483,457.25252 C 233.42053,461.85732 249.28803,464.56502 266.78362,464.56502 C 284.27923,464.56502 300.11553,461.85732 311.97113,457.25252 C 317.89903,454.95012 322.84423,452.16982 326.53363,448.78372 C 330.22303,445.39772 332.75233,441.15202 332.75243,436.37752 C 332.75243,433.51742 331.77333,430.85842 330.25243,428.44002 C 330.36203,429.08012 330.50243,429.71932 330.50243,430.37752 C 330.50243,434.36842 328.42233,438.01742 325.03363,441.12752 C 321.64493,444.23762 316.90663,446.92622 311.15863,449.15872 C 299.66273,453.62382 284.04283,456.31502 266.78362,456.31502 C 249.52443,456.31502 233.87333,453.62382 222.37743,449.15872 C 216.62943,446.92622 211.92233,444.23762 208.53363,441.12752 C 205.14493,438.01742 203.03373,434.36842 203.03363,430.37752 C 203.03363,429.71882 203.20363,429.08062 203.31483,428.44002 z "
       id="path2348" />
    <path
       style="opacity:1.0000000;fill:#6e9d9b;fill-opacity:1.0000000;stroke:#000000;stroke-width:0.64874989;stroke-linecap:round;stroke-linejoin:miter;stroke-miterlimit:4.0000000;stroke-dasharray:none;stroke-dashoffset:0.0000000;stroke-opacity:1.0000000"
       d="M 271.67263,538.68912 C 269.87252,541.90572 268.68102,545.43512 268.68102,549.23982 C 268.68112,555.58622 271.67043,561.22962 276.03093,565.73042 C 280.39143,570.23132 286.23633,573.92692 293.24223,576.98732 C 307.25443,583.10812 326.00823,586.70732 346.68623,586.70732 C 367.36422,586.70732 386.08102,583.10812 400.09312,576.98732 C 407.09932,573.92692 412.94402,570.23132 417.30452,565.73042 C 421.66502,561.22962 424.65442,555.58622 424.65452,549.23982 C 424.65452,545.43812 423.49732,541.90372 421.69972,538.68912 C 421.82932,539.53992 421.99522,540.38952 421.99522,541.26442 C 421.99522,546.56922 419.53682,551.41962 415.53172,555.55362 C 411.52662,559.68762 405.92642,563.26142 399.13282,566.22882 C 385.54592,572.16402 367.08482,575.74122 346.68623,575.74122 C 326.28763,575.74122 307.78963,572.16402 294.20263,566.22882 C 287.40913,563.26142 281.84583,559.68762 277.84073,555.55362 C 273.83563,551.41962 271.34033,546.56922 271.34023,541.26442 C 271.34023,540.38892 271.54113,539.54062 271.67263,538.68912 z "
       id="path2350" />
    <path
       style="opacity:1.0000000;fill:#6e9d9b;fill-opacity:1.0000000;stroke:#000000;stroke-width:0.64875001;stroke-linecap:round;stroke-linejoin:miter;stroke-miterlimit:4.0000000;stroke-dasharray:none;stroke-dashoffset:0.0000000;stroke-opacity:1.0000000"
       d="M 284.17523,493.51412 C 282.65223,495.93402 281.64403,498.58932 281.64403,501.45162 C 281.64413,506.22612 284.17343,510.47182 287.86283,513.85782 C 291.55223,517.24392 296.49753,520.02422 302.42523,522.32662 C 314.28093,526.93142 330.14843,529.63912 347.64403,529.63912 C 365.13962,529.63912 380.97592,526.93142 392.83152,522.32662 C 398.75942,520.02422 403.70462,517.24392 407.39402,513.85782 C 411.08342,510.47182 413.61272,506.22612 413.61282,501.45162 C 413.61282,498.59152 412.63372,495.93252 411.11282,493.51412 C 411.22242,494.15422 411.36282,494.79342 411.36282,495.45162 C 411.36282,499.44252 409.28272,503.09152 405.89402,506.20162 C 402.50532,509.31172 397.76702,512.00032 392.01902,514.23282 C 380.52312,518.69792 364.90322,521.38912 347.64403,521.38912 C 330.38483,521.38912 314.73373,518.69792 303.23783,514.23282 C 297.48983,512.00032 292.78273,509.31172 289.39403,506.20162 C 286.00533,503.09152 283.89413,499.44252 283.89403,495.45162 C 283.89403,494.79292 284.06403,494.15472 284.17523,493.51412 z "
       id="path2352" />
    <path
       style="opacity:1.0000000;fill:#6e9d9b;fill-opacity:1.0000000;stroke:#000000;stroke-width:0.64875001;stroke-linecap:round;stroke-linejoin:miter;stroke-miterlimit:4.0000000;stroke-dasharray:none;stroke-dashoffset:0.0000000;stroke-opacity:1.0000000"
       d="M 283.31243,613.49212 C 281.78943,615.91202 280.78123,616.56732 280.78123,619.42962 C 280.78133,624.20412 283.31063,628.44982 287.00003,631.83582 C 290.68943,635.22192 295.63473,638.00222 301.56243,640.30462 C 313.41813,644.90942 329.28563,647.61712 346.78123,647.61712 C 364.27682,647.61712 380.11312,644.90942 391.96872,640.30462 C 397.89662,638.00222 402.84182,635.22192 406.53122,631.83582 C 410.22062,628.44982 412.74992,624.20412 412.75002,619.42962 C 412.75002,616.56952 411.77092,615.91052 410.25002,613.49212 C 410.35962,614.13222 410.50002,614.77142 410.50002,615.42962 C 410.50002,619.42052 408.41992,621.06952 405.03122,624.17962 C 401.64252,627.28972 396.90422,629.97832 391.15622,632.21082 C 379.66032,636.67592 364.04042,639.36712 346.78123,639.36712 C 329.52203,639.36712 313.87093,636.67592 302.37503,632.21082 C 296.62703,629.97832 291.91993,627.28972 288.53123,624.17962 C 285.14253,621.06952 283.03133,619.42052 283.03123,615.42962 C 283.03123,614.77092 283.20123,614.13272 283.31243,613.49212 z "
       id="path2356"
       sodipodi:nodetypes="cssssssscsssssssc" />
  </g>
</svg>
