<?xml version="1.0" encoding="UTF-8" standalone="no"?>
<!-- Created with Inkscape (http://www.inkscape.org/) -->
<svg
   xmlns:dc="http://purl.org/dc/elements/1.1/"
   xmlns:cc="http://web.resource.org/cc/"
   xmlns:rdf="http://www.w3.org/1999/02/22-rdf-syntax-ns#"
   xmlns:svg="http://www.w3.org/2000/svg"
   xmlns="http://www.w3.org/2000/svg"
   xmlns:sodipodi="http://inkscape.sourceforge.net/DTD/sodipodi-0.dtd"
   xmlns:inkscape="http://www.inkscape.org/namespaces/inkscape"
   width="744.09448819"
   height="1052.3622047"
   id="svg2381"
   sodipodi:version="0.32"
   inkscape:version="0.42"
   sodipodi:docbase="/home/sjbrown/work/steam/data"
   sodipodi:docname="rainbow.svg">
  <defs
     id="defs2383" />
  <sodipodi:namedview
     id="base"
     pagecolor="#ffffff"
     bordercolor="#666666"
     borderopacity="1.0"
     inkscape:pageopacity="0.0"
     inkscape:pageshadow="2"
     inkscape:zoom="0.17500000"
     inkscape:cx="356.68625"
     inkscape:cy="461.63038"
     inkscape:document-units="px"
     inkscape:current-layer="layer1"
     inkscape:window-width="799"
     inkscape:window-height="527"
     inkscape:window-x="0"
     inkscape:window-y="0" />
  <metadata
     id="metadata2386">
    <rdf:RDF>
      <cc:Work
         rdf:about="">
        <dc:format>image/svg+xml</dc:format>
        <dc:type
           rdf:resource="http://purl.org/dc/dcmitype/StillImage" />
      </cc:Work>
    </rdf:RDF>
  </metadata>
  <g
     inkscape:label="Layer 1"
     inkscape:groupmode="layer"
     id="layer1">
    <path
       style="opacity:1.0000000;color:#000000;fill:#001797;fill-opacity:0.53051645;fill-rule:nonzero;stroke:none;stroke-width:1.0000000px;stroke-linecap:butt;stroke-linejoin:miter;marker:none;marker-start:none;marker-mid:none;marker-end:none;stroke-miterlimit:4.0000000;stroke-dasharray:none;stroke-dashoffset:0.0000000;stroke-opacity:0.69312167;visibility:visible;display:inline;overflow:visible"
       d="M 54.465924,526.88208 L 54.261904,651.62757 C 109.85026,646.80861 307.95243,645.94701 354.75861,701.16143 L 354.67118,622.84577 C 318.82315,539.12551 220.54581,529.13767 54.465924,526.88208 z "
       id="path1483"
       sodipodi:nodetypes="ccccc" />
    <path
       style="opacity:1.0000000;color:#000000;fill:#001797;fill-opacity:0.47887322;fill-rule:nonzero;stroke:none;stroke-width:1.0000000px;stroke-linecap:butt;stroke-linejoin:miter;marker:none;marker-start:none;marker-mid:none;marker-end:none;stroke-miterlimit:4.0000000;stroke-dasharray:none;stroke-dashoffset:0.0000000;stroke-opacity:0.69312167;visibility:visible;display:inline;overflow:visible"
       id="path1490"
       d="M 54.461164,542.38955 C 220.54101,544.64509 318.82553,552.77850 354.67355,636.49876 L 354.75749,687.17131 C 307.95131,631.95686 109.85137,627.21536 54.263024,632.03436 L 54.461164,542.38955 z "
       sodipodi:nodetypes="ccccc" />
    <path
       style="opacity:1.0000000;color:#000000;fill:#001797;fill-opacity:0.70899469;fill-rule:nonzero;stroke:none;stroke-width:1.0000000px;stroke-linecap:butt;stroke-linejoin:miter;marker:none;marker-start:none;marker-mid:none;marker-end:none;stroke-miterlimit:4.0000000;stroke-dasharray:none;stroke-dashoffset:0.0000000;stroke-opacity:0.69312167;visibility:visible;display:inline;overflow:visible"
       id="path1492"
       d="M 54.461164,562.19265 C 195.27093,562.36786 300.52800,569.65407 354.67355,647.67330 L 354.75749,675.04651 C 299.98262,608.82648 111.33004,611.62451 54.263024,613.35257 L 54.461164,562.19265 z "
       sodipodi:nodetypes="ccccc" />
    <path
       style="opacity:1.0000000;color:#000000;fill:#001797;fill-opacity:0.70899469;fill-rule:nonzero;stroke:none;stroke-width:1.0000000px;stroke-linecap:butt;stroke-linejoin:miter;marker:none;marker-start:none;marker-mid:none;marker-end:none;stroke-miterlimit:4.0000000;stroke-dasharray:none;stroke-dashoffset:0.0000000;stroke-opacity:0.69312167;visibility:visible;display:inline;overflow:visible"
       id="path1437"
       d="M 66.759734,210.89329 C 232.83960,213.14878 331.12413,223.14758 366.97215,306.86785 L 367.05605,351.94434 C 320.24986,296.72989 122.14993,297.58441 66.561574,302.40340 L 66.759734,210.89329 z "
       sodipodi:nodetypes="ccccc" />
    <path
       style="opacity:1.0000000;color:#000000;fill:#001797;fill-opacity:0.70899469;fill-rule:nonzero;stroke:none;stroke-width:1.0000000px;stroke-linecap:butt;stroke-linejoin:miter;marker:none;marker-start:none;marker-mid:none;marker-end:none;stroke-miterlimit:4.0000000;stroke-dasharray:none;stroke-dashoffset:0.0000000;stroke-opacity:0.69312167;visibility:visible;display:inline;overflow:visible"
       id="path1439"
       d="M 66.759714,224.34687 C 232.83956,226.60236 331.12408,236.60116 366.97211,320.32143 L 367.05605,365.39792 C 320.24986,310.18347 122.14993,311.03803 66.561574,315.85703 L 66.759714,224.34687 z "
       sodipodi:nodetypes="ccccc" />
    <path
       style="opacity:1.0000000;color:#000000;fill:#001797;fill-opacity:0.70899469;fill-rule:nonzero;stroke:none;stroke-width:1.0000000px;stroke-linecap:butt;stroke-linejoin:miter;marker:none;marker-start:none;marker-mid:none;marker-end:none;stroke-miterlimit:4.0000000;stroke-dasharray:none;stroke-dashoffset:0.0000000;stroke-opacity:0.69312167;visibility:visible;display:inline;overflow:visible"
       id="path1441"
       d="M 66.759714,244.13155 C 232.83956,246.38709 331.12408,256.38584 366.97211,340.10611 L 367.05605,385.18259 C 320.24986,329.96815 122.14993,330.82271 66.561574,335.64171 L 66.759714,244.13155 z "
       sodipodi:nodetypes="ccccc" />
    <path
       style="opacity:1.0000000;color:#000000;fill:#001797;fill-opacity:0.70899469;fill-rule:nonzero;stroke:none;stroke-width:1.0000000px;stroke-linecap:butt;stroke-linejoin:miter;marker:none;marker-start:none;marker-mid:none;marker-end:none;stroke-miterlimit:4.0000000;stroke-dasharray:none;stroke-dashoffset:0.0000000;stroke-opacity:0.69312167;visibility:visible;display:inline;overflow:visible"
       d="M 353.02440,799.05469 L 352.98070,785.70576 C 350.93772,783.50087 348.87207,781.35683 346.77257,779.27906 C 344.67307,777.20129 342.54671,775.20018 340.38957,773.24581 C 338.23243,771.29143 336.04754,769.39707 333.83169,767.56231 C 331.61583,765.72755 329.36006,763.94749 327.08433,762.22857 C 324.80865,760.50964 322.49878,758.85139 320.16214,757.24458 C 317.82551,755.63776 315.46374,754.07973 313.06508,752.58119 C 310.66638,751.08266 308.24035,749.63240 305.77855,748.23842 C 303.31670,746.84444 300.81405,745.50945 298.28794,744.21625 C 295.76188,742.92305 293.21400,741.68175 290.62255,740.48555 C 288.03107,739.28934 285.39644,738.13469 282.73850,737.03170 C 280.08056,735.92877 277.39053,734.86831 274.66502,733.85482 C 271.93950,732.84128 269.18172,731.88258 266.38751,730.95476 C 263.59331,730.02693 260.76996,729.13375 257.90599,728.28786 C 255.04202,727.44202 252.14074,726.63651 249.20584,725.86878 C 246.27098,725.10100 243.29402,724.37612 240.28712,723.68277 C 237.28026,722.98947 234.24440,722.32358 231.16442,721.70083 C 228.08440,721.07813 224.96268,720.49339 221.80847,719.93752 C 218.65429,719.38164 215.46351,718.85640 212.23398,718.36362 C 205.77492,717.37802 199.16704,716.51096 192.40006,715.75502 C 185.63302,714.99913 178.70263,714.35862 171.61881,713.80228 C 164.53504,713.24589 157.29985,712.77563 149.89039,712.38867 C 142.48092,712.00170 134.90037,711.70371 127.15639,711.45599 C 119.41242,711.20827 111.50419,711.01171 103.41686,710.87307 C 87.242214,710.59578 70.376664,710.51604 52.775444,710.49417 L 52.644294,737.39605 C 109.76712,735.66827 298.21767,732.90517 353.02440,799.05469 z "
       id="path2229" />
    <path
       style="opacity:1.0000000;color:#000000;fill:#001797;fill-opacity:0.70899469;fill-rule:nonzero;stroke:none;stroke-width:1.0000000px;stroke-linecap:butt;stroke-linejoin:miter;marker:none;marker-start:none;marker-mid:none;marker-end:none;stroke-miterlimit:4.0000000;stroke-dasharray:none;stroke-dashoffset:0.0000000;stroke-opacity:0.69312167;visibility:visible;display:inline;overflow:visible"
       d="M 52.775444,686.24460 L 52.571424,737.39605 C 52.590634,737.39549 52.625044,737.39661 52.644294,737.39605 L 52.775444,710.49417 C 70.376664,710.51604 87.242214,710.59578 103.41686,710.87307 C 111.50419,711.01171 119.41242,711.20827 127.15639,711.45599 C 134.90037,711.70371 142.48092,712.00170 149.89039,712.38867 C 157.29985,712.77563 164.53504,713.24589 171.61881,713.80228 C 178.70263,714.35862 185.63302,714.99913 192.40006,715.75502 C 199.16704,716.51096 205.77492,717.37802 212.23398,718.36362 C 215.46351,718.85640 218.65429,719.38164 221.80847,719.93752 C 224.96268,720.49339 228.08440,721.07813 231.16442,721.70083 C 234.24440,722.32358 237.28026,722.98947 240.28712,723.68277 C 243.29402,724.37612 246.27098,725.10100 249.20584,725.86878 C 252.14074,726.63651 255.04202,727.44202 257.90599,728.28786 C 260.76996,729.13375 263.59331,730.02693 266.38751,730.95476 C 269.18172,731.88258 271.93950,732.84128 274.66502,733.85482 C 277.39053,734.86831 280.08056,735.92877 282.73850,737.03170 C 285.39644,738.13469 288.03107,739.28934 290.62255,740.48555 C 293.21400,741.68175 295.76188,742.92305 298.28794,744.21625 C 300.81405,745.50945 303.31670,746.84444 305.77855,748.23842 C 308.24035,749.63240 310.66638,751.08266 313.06508,752.58119 C 315.46374,754.07973 317.82551,755.63776 320.16214,757.24458 C 322.49878,758.85139 324.80865,760.50964 327.08433,762.22857 C 329.36006,763.94749 331.61583,765.72755 333.83169,767.56231 C 336.04754,769.39707 338.23243,771.29143 340.38957,773.24581 C 342.54671,775.20018 344.67307,777.20129 346.77257,779.27906 C 348.87207,781.35683 350.93772,783.50087 352.98070,785.70576 L 353.02440,799.05469 C 353.03736,799.07036 353.05517,799.08277 353.06814,799.09843 L 352.98070,771.71561 C 298.83514,693.69641 193.58521,686.41976 52.775444,686.24460 z "
       id="path2224" />
    <path
       style="opacity:1.0000000;color:#000000;fill:#001797;fill-opacity:0.53051645;fill-rule:nonzero;stroke:none;stroke-width:1.0000000px;stroke-linecap:butt;stroke-linejoin:miter;marker:none;marker-start:none;marker-mid:none;marker-end:none;stroke-miterlimit:4.0000000;stroke-dasharray:none;stroke-dashoffset:0.0000000;stroke-opacity:0.69312167;visibility:visible;display:inline;overflow:visible"
       d="M 390.22947,641.60129 L 390.02544,766.34675 C 445.61380,761.52780 643.71597,760.66619 690.52215,815.88064 L 690.43471,737.56496 C 654.58669,653.84472 556.30935,643.85688 390.22947,641.60129 z "
       id="path2231"
       sodipodi:nodetypes="ccccc" />
    <path
       style="opacity:1.0000000;color:#000000;fill:#001797;fill-opacity:0.47887322;fill-rule:nonzero;stroke:none;stroke-width:1.0000000px;stroke-linecap:butt;stroke-linejoin:miter;marker:none;marker-start:none;marker-mid:none;marker-end:none;stroke-miterlimit:4.0000000;stroke-dasharray:none;stroke-dashoffset:0.0000000;stroke-opacity:0.69312167;visibility:visible;display:inline;overflow:visible"
       id="path2234"
       d="M 390.22471,657.10877 C 556.30455,659.36430 654.58907,667.49771 690.43709,751.21795 L 690.52103,801.89050 C 643.71485,746.67605 445.61492,741.93455 390.02656,746.75355 L 390.22471,657.10877 z "
       sodipodi:nodetypes="ccccc" />
    <path
       style="opacity:1.0000000;color:#000000;fill:#001797;fill-opacity:0.70899469;fill-rule:nonzero;stroke:none;stroke-width:1.0000000px;stroke-linecap:butt;stroke-linejoin:miter;marker:none;marker-start:none;marker-mid:none;marker-end:none;stroke-miterlimit:4.0000000;stroke-dasharray:none;stroke-dashoffset:0.0000000;stroke-opacity:0.69312167;visibility:visible;display:inline;overflow:visible"
       id="path2236"
       d="M 390.22471,676.91187 C 531.03447,677.08707 636.29154,684.37328 690.43709,762.39248 L 690.52103,789.76570 C 635.74616,723.54567 447.09359,726.34370 390.02656,728.07176 L 390.22471,676.91187 z "
       sodipodi:nodetypes="ccccc" />
    <path
       style="opacity:1.0000000;color:#000000;fill:#ff17e4;fill-opacity:1.0000000;fill-rule:nonzero;stroke:none;stroke-width:1.0000000px;stroke-linecap:butt;stroke-linejoin:miter;marker:none;marker-start:none;marker-mid:none;marker-end:none;stroke-miterlimit:4.0000000;stroke-dasharray:none;stroke-dashoffset:0.0000000;stroke-opacity:0.69312167;visibility:visible;display:inline;overflow:visible"
       d="M 701.69967,352.00734 C 700.24045,350.28725 698.63462,348.60293 696.89056,346.97961 C 695.14137,345.35148 693.25401,343.77666 691.23621,342.24333 C 689.21841,340.71006 687.06346,339.22496 684.79491,337.78402 C 682.52645,336.34304 680.14076,334.95265 677.63956,333.60153 C 675.13830,332.25041 672.52984,330.94512 669.81384,329.68139 C 667.09779,328.41762 664.27425,327.18788 661.36146,326.00898 C 658.44857,324.83003 655.44708,323.69543 652.35526,322.59884 C 649.26344,321.50229 646.07732,320.45321 642.82452,319.43650 C 639.57167,318.41979 636.25241,317.43209 632.85654,316.49274 C 629.46057,315.55340 626.00146,314.66125 622.48051,313.79670 C 618.95947,312.93220 615.36839,312.09690 611.74009,311.30473 C 608.11188,310.51256 604.44040,309.75360 600.72285,309.03133 C 593.28788,307.58675 585.68796,306.27672 578.00350,305.09660 C 570.31899,303.91649 562.54998,302.86984 554.75938,301.93427 C 546.96888,300.99865 539.16648,300.18247 531.41332,299.47140 C 523.66026,298.76032 515.96018,298.15632 508.38787,297.64974 C 500.81570,297.14320 493.36814,296.73301 486.12022,296.41105 C 478.87239,296.08909 471.81310,295.85438 465.03306,295.69699 C 458.25297,295.53956 451.74681,295.46201 445.57794,295.44923 C 439.40913,295.43645 433.59184,295.48313 428.17770,295.59496 C 422.76365,295.70679 417.75620,295.87392 413.24032,296.09044 C 408.73536,296.30645 404.71529,296.57711 401.24666,296.87739 L 401.21752,316.47815 C 456.80592,311.65915 654.90809,310.79759 701.71427,366.01204 L 701.69967,352.00734 z "
       id="path2248" />
    <path
       style="opacity:1.0000000;color:#000000;fill:#ff7800;fill-opacity:1.0000000;fill-rule:nonzero;stroke:none;stroke-width:1.0000000px;stroke-linecap:butt;stroke-linejoin:miter;marker:none;marker-start:none;marker-mid:none;marker-end:none;stroke-miterlimit:4.0000000;stroke-dasharray:none;stroke-dashoffset:0.0000000;stroke-opacity:0.69312167;visibility:visible;display:inline;overflow:visible"
       d="M 401.41431,207.23841 L 401.42886,226.11056 C 542.23857,226.28571 647.48855,233.56241 701.63410,311.58159 L 701.61955,301.33675 C 700.49922,298.72050 699.32060,296.18581 698.07827,293.71506 C 696.83590,291.24426 695.53743,288.84551 694.17269,286.51591 C 692.80786,284.18641 691.37583,281.93195 689.88821,279.73946 C 688.40064,277.54697 686.85002,275.41622 685.23942,273.35645 C 683.62874,271.29668 681.96027,269.29814 680.22629,267.36694 C 678.49211,265.43565 676.69196,263.56335 674.83416,261.75629 C 672.97636,259.94923 671.05980,258.21160 669.07786,256.52458 C 667.09597,254.83746 665.04889,253.21395 662.94253,251.64258 C 660.83627,250.07120 658.67400,248.55570 656.44304,247.09578 C 654.21198,245.63586 651.92059,244.22230 649.56455,242.86959 C 647.20842,241.51688 644.78859,240.21375 642.30707,238.96401 C 639.82568,237.71427 637.27798,236.51545 634.67078,235.36448 C 632.06362,234.21342 629.38885,233.11295 626.65568,232.05637 C 623.92243,230.99979 621.13568,229.99156 618.27615,229.02517 C 615.41651,228.05878 612.48940,227.13674 609.50316,226.25629 C 606.51696,225.37584 603.46450,224.53396 600.35127,223.73512 C 597.23804,222.93638 594.06107,222.18315 590.82048,221.46173 C 587.57980,220.74039 584.27906,220.05511 580.91079,219.40695 C 577.54248,218.75878 574.10384,218.14998 570.60756,217.57074 C 567.11128,216.99150 563.55014,216.43856 559.92557,215.92396 C 552.67630,214.89480 545.17459,213.99486 537.41020,213.19882 C 529.64572,212.40278 521.61775,211.71180 513.33549,211.11489 C 505.05313,210.51793 496.51882,210.01662 487.71594,209.58470 C 478.91315,209.15277 469.84851,208.79257 460.52268,208.49174 C 451.19667,208.19081 441.60703,207.95242 431.75535,207.74849 C 421.90377,207.54456 411.79430,207.37938 401.41431,207.23841 z "
       id="path2246"
       sodipodi:nodetypes="ccccsssssssssssssssssssssssssc" />
    <path
       style="opacity:1.0000000;color:#000000;fill:#0017ff;fill-opacity:1.0000000;fill-rule:nonzero;stroke:none;stroke-width:1.0000000px;stroke-linecap:butt;stroke-linejoin:miter;marker:none;marker-start:none;marker-mid:none;marker-end:none;stroke-miterlimit:4.0000000;stroke-dasharray:none;stroke-dashoffset:0.0000000;stroke-opacity:0.69312167;visibility:visible;display:inline;overflow:visible"
       d="M 401.26849,275.39668 L 401.23943,296.87739 C 404.70797,296.57711 408.72808,296.30645 413.23305,296.09044 C 417.74897,295.87392 422.75628,295.70679 428.17047,295.59496 C 433.58452,295.48313 439.40190,295.43645 445.57062,295.44923 C 451.73944,295.46201 458.24564,295.53956 465.02574,295.69699 C 471.80578,295.85438 478.86512,296.08909 486.11299,296.41105 C 493.36082,296.73301 500.80834,297.14320 508.38064,297.64974 C 515.95281,298.15632 523.65294,298.76032 531.40610,299.47140 C 539.15916,300.18247 546.96155,300.99861 554.75206,301.93427 C 562.54266,302.86984 570.31167,303.91649 577.99618,305.09660 C 585.68064,306.27672 593.28055,307.58675 600.71562,309.03133 C 604.43303,309.75360 608.10456,310.51256 611.73286,311.30473 C 615.36106,312.09690 618.95210,312.93225 622.47319,313.79670 C 625.99418,314.66125 629.45329,315.55340 632.84922,316.49274 C 636.24504,317.43209 639.56430,318.41979 642.81720,319.43650 C 646.07000,320.45321 649.25621,321.50233 652.34798,322.59884 C 655.43981,323.69543 658.44125,324.82998 661.35414,326.00898 C 664.26698,327.18788 667.09047,328.41762 669.80652,329.68139 C 672.52247,330.94512 675.13107,332.25041 677.63219,333.60153 C 680.13339,334.95265 682.51909,336.34299 684.78763,337.78402 C 687.05604,339.22496 689.21113,340.71011 691.22893,342.24333 C 693.24673,343.77666 695.13409,345.35148 696.88328,346.97961 C 698.62725,348.60293 700.23313,350.28720 701.69240,352.00734 L 701.67785,338.92067 C 657.13481,285.15901 527.17995,272.17191 401.26849,275.39668 z "
       id="path2260"
       sodipodi:nodetypes="ccsssssssssssssssssssssccc" />
    <path
       style="opacity:1.0000000;color:#000000;fill:#ff1700;fill-opacity:1.0000000;fill-rule:nonzero;stroke:none;stroke-width:1.0000000px;stroke-linecap:butt;stroke-linejoin:miter;marker:none;marker-start:none;marker-mid:none;marker-end:none;stroke-miterlimit:4.0000000;stroke-dasharray:none;stroke-dashoffset:0.0000000;stroke-opacity:0.69312167;visibility:visible;display:inline;overflow:visible"
       d="M 401.38517,191.73266 L 401.38517,207.23841 C 411.76516,207.37938 421.87467,207.54456 431.72630,207.74849 C 441.57793,207.95242 451.16761,208.19081 460.49353,208.49174 C 469.81946,208.79262 478.88405,209.15277 487.68688,209.58470 C 496.48972,210.01662 505.02403,210.51793 513.30634,211.11489 C 521.58865,211.71180 529.61662,212.40278 537.38105,213.19882 C 545.14549,213.99486 552.64724,214.89480 559.89647,215.92396 C 563.52104,216.43856 567.08223,216.99150 570.57851,217.57074 C 574.07479,218.14998 577.51338,218.75878 580.88169,219.40695 C 584.24996,220.05511 587.55075,220.74039 590.79138,221.46173 C 594.03197,222.18310 597.20889,222.93638 600.32212,223.73512 C 603.43540,224.53392 606.48781,225.37584 609.47401,226.25629 C 612.46025,227.13674 615.38746,228.05878 618.24705,229.02517 C 621.10659,229.99156 623.89333,230.99979 626.62654,232.05637 C 629.35975,233.11295 632.03457,234.21342 634.64173,235.36448 C 637.24888,236.51550 639.79658,237.71427 642.27802,238.96401 C 644.75945,240.21375 647.17932,241.51688 649.53540,242.86959 C 651.89149,244.22230 654.18289,245.63586 656.41389,247.09578 C 658.64490,248.55570 660.80717,250.07120 662.91348,251.64258 C 665.01979,253.21395 667.06683,254.83746 669.04872,256.52458 C 671.03061,258.21165 672.94731,259.94923 674.80510,261.75629 C 676.66290,263.56335 678.46306,265.43565 680.19714,267.36694 C 681.93122,269.29819 683.59964,271.29668 685.21028,273.35645 C 686.82092,275.41622 688.37154,277.54697 689.85906,279.73946 C 691.34664,281.93195 692.77876,284.18641 694.14359,286.51591 C 695.50838,288.84546 696.80680,291.24426 698.04918,293.71506 C 699.29145,296.18581 700.47017,298.72050 701.59041,301.33675 L 701.63410,326.35873 L 701.59041,287.69636 C 665.74238,203.97605 567.46505,193.98829 401.38517,191.73266 z "
       id="path2238"
       sodipodi:nodetypes="ccssssssssssssssssssssssssscccc" />
    <path
       style="opacity:1.0000000;color:#000000;fill:#07ff00;fill-opacity:1.0000000;fill-rule:nonzero;stroke:none;stroke-width:1.0000000px;stroke-linecap:butt;stroke-linejoin:miter;marker:none;marker-start:none;marker-mid:none;marker-end:none;stroke-miterlimit:4.0000000;stroke-dasharray:none;stroke-dashoffset:0.0000000;stroke-opacity:0.69312167;visibility:visible;display:inline;overflow:visible"
       d="M 701.65598,338.91471 L 701.61223,325.56577 C 699.56925,323.36088 697.50365,321.21684 695.40410,319.13907 C 693.30465,317.06130 691.17829,315.06020 689.02110,313.10582 C 686.86401,311.15144 684.67912,309.25708 682.46322,307.42232 C 680.24741,305.58756 677.99164,303.80750 675.71591,302.08858 C 673.44023,300.36966 671.13036,298.71140 668.79372,297.10459 C 666.45709,295.49777 664.09532,293.93974 661.69666,292.44121 C 659.29796,290.94268 656.87193,289.49241 654.41013,288.09843 C 651.94829,286.70445 649.44563,285.36947 646.91953,284.07626 C 644.39347,282.78306 641.84558,281.54176 639.25414,280.34556 C 636.66265,279.14935 634.02803,277.99470 631.37008,276.89172 C 628.71214,275.78878 626.02212,274.72833 623.29660,273.71483 C 620.57109,272.70129 617.81330,271.74260 615.01910,270.81477 C 612.22489,269.88694 609.40154,268.99376 606.53757,268.14787 C 603.67360,267.30203 600.77233,266.49652 597.83743,265.72879 C 594.90257,264.96101 591.92561,264.23614 588.91871,263.54278 C 585.91185,262.84948 582.87599,262.18359 579.79601,261.56085 C 576.71599,260.93814 573.59427,260.35340 570.44005,259.79753 C 567.28588,259.24165 564.09510,258.71642 560.86557,258.22364 C 554.40650,257.23803 547.79863,256.37097 541.03164,255.61503 C 534.26461,254.85915 527.33422,254.21863 520.25040,253.66229 C 513.16663,253.10590 505.93144,252.63564 498.52197,252.24868 C 491.11251,251.86171 483.53195,251.56372 475.78798,251.31600 C 468.04402,251.06828 460.13581,250.87172 452.04843,250.73308 C 435.87382,250.45579 419.00827,250.37605 401.40704,250.35418 L 401.27586,275.39071 C 458.39870,273.66293 646.84925,272.76518 701.65598,338.91471 z "
       id="path2254"
       sodipodi:nodetypes="ccsssssssssssssssssssssssccc" />
    <path
       style="opacity:1.0000000;color:#000000;fill:#ffd900;fill-opacity:1.0000000;fill-rule:nonzero;stroke:none;stroke-width:1.0000000px;stroke-linecap:butt;stroke-linejoin:miter;marker:none;marker-start:none;marker-mid:none;marker-end:none;stroke-miterlimit:4.0000000;stroke-dasharray:none;stroke-dashoffset:0.0000000;stroke-opacity:0.69312167;visibility:visible;display:inline;overflow:visible"
       d="M 401.42159,226.10459 L 401.42159,250.35418 C 419.02282,250.37605 435.88837,250.45579 452.06294,250.73308 C 460.15031,250.87172 468.05857,251.06828 475.80253,251.31600 C 483.54650,251.56372 491.12706,251.86171 498.53652,252.24868 C 505.94599,252.63564 513.18113,253.10590 520.26490,253.66229 C 527.34877,254.21863 534.27911,254.85915 541.04619,255.61503 C 547.81318,256.37097 554.42105,257.23803 560.88012,258.22364 C 564.10965,258.71642 567.30043,259.24165 570.45456,259.79753 C 573.60882,260.35340 576.73054,260.93814 579.81056,261.56085 C 582.89054,262.18359 585.92640,262.84948 588.93321,263.54278 C 591.94016,264.23614 594.91712,264.96101 597.85193,265.72879 C 600.78683,266.49652 603.68815,267.30203 606.55212,268.14787 C 609.41609,268.99376 612.23944,269.88694 615.03365,270.81477 C 617.82785,271.74260 620.58564,272.70129 623.31115,273.71483 C 626.03662,274.72833 628.72669,275.78878 631.38463,276.89172 C 634.04253,277.99470 636.67720,279.14935 639.26869,280.34556 C 641.86008,281.54176 644.40802,282.78306 646.93403,284.07626 C 649.46018,285.36947 651.96279,286.70445 654.42468,288.09843 C 656.88648,289.49241 659.31251,290.94268 661.71121,292.44121 C 664.10987,293.93974 666.47164,295.49777 668.80827,297.10459 C 671.14491,298.71140 673.45473,300.36966 675.73041,302.08858 C 678.00614,303.80750 680.26191,305.58756 682.47781,307.42232 C 684.69362,309.25708 686.87851,311.15144 689.03570,313.10582 C 691.19279,315.06020 693.31915,317.06130 695.41870,319.13907 C 697.51820,321.21684 699.58385,323.36088 701.62683,325.56577 L 701.67048,338.91471 C 701.68349,338.93037 701.70130,338.94278 701.71427,338.95845 L 701.62683,311.57563 C 647.48128,233.55639 542.23135,226.27975 401.42159,226.10459 z "
       id="path2256"
       sodipodi:nodetypes="ccsssssssssssssssssssssssccccc" />
  </g>
</svg>
